# xmcd
#
# Track frame offsets:
# 150
# 18642
# 36284
# 42418
# 60861
# 73642
# 74484
# 75495
#
# Disc length: 1226 seconds
#
# Revision: 0
# Processed by: cddbd v1.4PL0 Copyright (c) Steve Scherf et al.
# Submitted via: Audion 3.0.2 (http://www.panic.com/audion/)
#
DISCID=6704c808
DTITLE=Anna Oxygen - Anna O.
DYEAR=1900
DGENRE=
TTITLE0=Ponytails
TTITLE1=Scientist
TTITLE2=Tube
TTITLE3=Nerve Angels
TTITLE4=Spectacle
TTITLE5=secret bonus track
TTITLE6=secret bonus track
TTITLE7=secret bonus track
EXTD=
EXTT0=
EXTT1=
EXTT2=
EXTT3=
EXTT4=
EXTT5=
EXTT6=
EXTT7=
PLAYORDER=
